<svg xmlns="http://www.w3.org/2000/svg" version="1.1" xmlns:xlink="http://www.w3.org/1999/xlink" xmlns:svgjs="http://svgjs.dev/svgjs" viewBox="0 0 800 800"><g transform="matrix(1,0,0,1,0,0)"><circle r="26.5" cx="677" cy="800" stroke-width="0.5" stroke="#ff3895" fill="none" opacity="0.01" transform="rotate(84, 400, 400)"></circle><circle r="37.72727272727273" cx="651.8181818181819" cy="763.6363636363636" stroke-width="1.9090909090909092" stroke="#f64597" fill="none" opacity="0.09999999999999999" transform="rotate(76.36363636363636, 400, 400)"></circle><circle r="48.95454545454545" cx="626.6363636363636" cy="727.2727272727273" stroke-width="3.3181818181818183" stroke="#ee5099" fill="none" opacity="0.19" transform="rotate(68.72727272727272, 400, 400)"></circle><circle r="60.18181818181818" cx="601.4545454545455" cy="690.9090909090909" stroke-width="4.7272727272727275" stroke="#e45a9c" fill="none" opacity="0.28" transform="rotate(61.09090909090909, 400, 400)"></circle><circle r="71.4090909090909" cx="576.2727272727273" cy="654.5454545454545" stroke-width="6.136363636363637" stroke="#db629e" fill="none" opacity="0.37" transform="rotate(53.45454545454545, 400, 400)"></circle><circle r="82.63636363636363" cx="551.0909090909091" cy="618.1818181818181" stroke-width="7.545454545454546" stroke="#d16aa0" fill="none" opacity="0.45999999999999996" transform="rotate(45.81818181818181, 400, 400)"></circle><circle r="93.86363636363636" cx="525.9090909090909" cy="581.8181818181818" stroke-width="8.954545454545455" stroke="#c672a2" fill="none" opacity="0.55" transform="rotate(38.18181818181818, 400, 400)"></circle><circle r="105.0909090909091" cx="500.72727272727275" cy="545.4545454545455" stroke-width="10.363636363636363" stroke="#bb78a4" fill="none" opacity="0.64" transform="rotate(30.545454545454547, 400, 400)"></circle><circle r="116.31818181818181" cx="475.5454545454545" cy="509.09090909090907" stroke-width="11.772727272727273" stroke="#af7fa6" fill="none" opacity="0.73" transform="rotate(22.909090909090907, 400, 400)"></circle><circle r="127.54545454545453" cx="450.3636363636364" cy="472.7272727272727" stroke-width="13.181818181818183" stroke="#a385a8" fill="none" opacity="0.82" transform="rotate(15.272727272727266, 400, 400)"></circle><circle r="138.77272727272725" cx="425.18181818181813" cy="436.3636363636363" stroke-width="14.590909090909092" stroke="#958baa" fill="none" opacity="0.9099999999999999" transform="rotate(7.636363636363626, 400, 400)"></circle><circle r="150" cx="400" cy="399.99999999999994" stroke-width="16" stroke="#8691ac" fill="none" opacity="1" transform="rotate(0, 400, 400)"></circle></g></svg>