<svg xmlns="http://www.w3.org/2000/svg" version="1.1" xmlns:xlink="http://www.w3.org/1999/xlink" viewBox="0 0 700 700" style="overflow: hidden; display: block;" width="700" height="700"><defs><linearGradient id="two-3" x1="350" y1="-350" x2="350" y2="350" spreadMethod="pad" gradientUnits="userSpaceOnUse"><stop offset="0%" stop-color="hsl(230, 85%, 47%)" stop-opacity="1"></stop><stop offset="100%" stop-color="hsl(230, 55%, 70%)" stop-opacity="1"></stop></linearGradient></defs><g id="two-0" transform="matrix(1 0 0 1 0 0)" opacity="1"><path transform="matrix(1 0 0 1 350 350)" id="two-219" d="M 338.8579 48.72041 C 343.440373 64.195462 329.018273 80.237111 321.037672 94.265165 C 313.051484 108.303043 301.634083 120.751391 290.972161 132.882533 C 280.833441 144.418376 272.802621 161.119434 258.224261 165.950655 C 232.616304 174.437049 203.239151 145.975723 177.395241 153.713851 C 166.833012 156.876371 158.704598 166.901928 152.5452 176.046545 C 144.851831 187.468588 144.160928 202.803067 138.36065 215.293374 C 132.142096 228.684397 130.165118 249.810553 116.025516 254.060442 C 98.861109 259.219486 84.935293 225.767141 67.459719 229.746707 C 52.199159 233.221866 54.035613 266.128105 38.424511 267.248347 C 20.829673 268.510941 17.4362 227.412708 0 230.086918 C -30.733604 234.800567 -14.142868 308.932221 -44.984744 312.875765 C -62.082506 315.061941 -72.685536 290.008518 -80.668463 274.731552 C -91.1058 254.75757 -73.816092 215.728272 -94.9689 207.952883 C -124.827109 196.977547 -140.841952 275.549305 -171.397912 266.700356 C -187.739873 261.967755 -186.976155 235.173049 -189.158119 218.300106 C -191.677363 198.819003 -171.54752 174.59619 -183.542395 159.04039 C -193.942311 145.553046 -218.241278 155.84686 -234.471842 150.685903 C -250.635989 145.546065 -270.518963 141.762544 -280.683384 128.183806 C -289.428499 116.50113 -290.320203 98.997278 -288.055801 84.580814 C -285.364082 67.443816 -262.944877 55.256962 -263.82382 37.932138 C -264.582296 22.981813 -287.571134 14.926828 -288.701308 0 C -289.768461 -14.094473 -280.064222 -28.208178 -270.871632 -38.945462 C -259.932761 -51.722465 -239.216535 -54.210726 -228.35055 -67.049772 C -221.129632 -75.581876 -213.050782 -86.936349 -214.602546 -98.005699 C -219.756087 -134.767977 -287.491728 -147.180899 -286.769583 -184.295621 C -286.458078 -200.305488 -265.760505 -209.182845 -254.215131 -220.278665 C -242.823174 -231.227042 -229.685381 -240.952828 -217.463126 -250.965826 C -205.331246 -260.904786 -194.225524 -273.297688 -180.42004 -280.739062 C -166.529549 -288.226256 -150.266065 -299.023452 -134.906772 -295.404624 C -104.535093 -288.248701 -97.404727 -220.990698 -67.321555 -229.276159 C -39.641505 -236.899755 -73.580514 -310.104399 -45.057433 -313.381324 C -13.525111 -317.00397 -30.079142 -238.539049 -0.000001 -228.407115 C 12.123325 -224.323464 24.719852 -237.324865 35.180851 -244.6882 C 55.278953 -258.834942 63.44342 -303.11618 87.430969 -297.762539 C 107.93223 -293.186983 99.346677 -256.59506 108.562661 -237.719069 C 114.485679 -225.587663 122.930617 -214.360646 130.638237 -203.277065 C 137.264915 -193.747881 140.984257 -179.40967 151.791832 -175.177113 C 171.672096 -167.39143 198.13099 -199.170684 215.456795 -186.694377 C 227.396636 -178.096501 212.541428 -153.970609 221.839576 -142.56764 C 233.028003 -128.84649 260.044981 -137.130447 272.304636 -124.357361 C 282.041771 -114.212439 276.989913 -95.19509 285.112365 -83.716545 C 296.491327 -67.635941 332.702016 -67.553363 332.834687 -47.854404 C 333.00862 -22.028683 270.445673 -25.822155 270.908732 -0.000001 C 271.403441 27.587132 331.023743 22.264398 338.8579 48.72041 Z " fill="url(#two-3)" stroke="undefined" stroke-width="1" stroke-opacity="1" fill-opacity="1" visibility="visible" stroke-linecap="butt" stroke-linejoin="miter" stroke-miterlimit="4"></path></g></svg>